<mxfile host="65bd71144e">
    <diagram id="YWW8OsZ1WokiIzpeI95L" name="Page-1">
        <mxGraphModel dx="836" dy="1009" grid="1" gridSize="10" guides="1" tooltips="1" connect="1" arrows="1" fold="1" page="1" pageScale="1" pageWidth="850" pageHeight="1100" math="0" shadow="0">
            <root>
                <mxCell id="0"/>
                <mxCell id="1" parent="0"/>
                <mxCell id="4" value="" style="edgeStyle=none;html=1;" edge="1" parent="1" source="2" target="3">
                    <mxGeometry relative="1" as="geometry"/>
                </mxCell>
                <mxCell id="2" value="App" style="whiteSpace=wrap;html=1;" vertex="1" parent="1">
                    <mxGeometry x="305" y="160" width="120" height="60" as="geometry"/>
                </mxCell>
                <mxCell id="6" value="" style="edgeStyle=none;html=1;exitX=1;exitY=1;exitDx=0;exitDy=0;" edge="1" parent="1" source="2" target="5">
                    <mxGeometry relative="1" as="geometry"/>
                </mxCell>
                <mxCell id="8" value="" style="edgeStyle=none;html=1;" edge="1" parent="1" source="3" target="7">
                    <mxGeometry relative="1" as="geometry"/>
                </mxCell>
                <mxCell id="3" value="Header" style="whiteSpace=wrap;html=1;" vertex="1" parent="1">
                    <mxGeometry x="200" y="300" width="120" height="60" as="geometry"/>
                </mxCell>
                <mxCell id="12" value="" style="edgeStyle=none;html=1;" edge="1" parent="1" source="5" target="11">
                    <mxGeometry relative="1" as="geometry"/>
                </mxCell>
                <mxCell id="5" value="ListingsContainer" style="whiteSpace=wrap;html=1;" vertex="1" parent="1">
                    <mxGeometry x="410" y="300" width="120" height="60" as="geometry"/>
                </mxCell>
                <mxCell id="7" value="Search" style="whiteSpace=wrap;html=1;" vertex="1" parent="1">
                    <mxGeometry x="200" y="440" width="120" height="60" as="geometry"/>
                </mxCell>
                <mxCell id="9" value="State: listings" style="text;strokeColor=none;align=center;fillColor=none;html=1;verticalAlign=middle;whiteSpace=wrap;rounded=0;" vertex="1" parent="1">
                    <mxGeometry x="450" y="175" width="60" height="30" as="geometry"/>
                </mxCell>
                <mxCell id="10" value="Event:&lt;br&gt;onChange()" style="text;strokeColor=none;align=center;fillColor=none;html=1;verticalAlign=middle;whiteSpace=wrap;rounded=0;" vertex="1" parent="1">
                    <mxGeometry x="335" y="455" width="60" height="30" as="geometry"/>
                </mxCell>
                <mxCell id="11" value="ListingCard" style="whiteSpace=wrap;html=1;" vertex="1" parent="1">
                    <mxGeometry x="440" y="430" width="120" height="60" as="geometry"/>
                </mxCell>
                <mxCell id="13" value="State: isFavorited&lt;br&gt;listings.map()" style="text;strokeColor=none;align=center;fillColor=none;html=1;verticalAlign=middle;whiteSpace=wrap;rounded=0;" vertex="1" parent="1">
                    <mxGeometry x="550" y="310" width="130" height="30" as="geometry"/>
                </mxCell>
                <mxCell id="14" value="Props: listing&lt;br&gt;Event: onClick()" style="text;strokeColor=none;align=center;fillColor=none;html=1;verticalAlign=middle;whiteSpace=wrap;rounded=0;" vertex="1" parent="1">
                    <mxGeometry x="580" y="440" width="110" height="30" as="geometry"/>
                </mxCell>
            </root>
        </mxGraphModel>
    </diagram>
</mxfile>